HIERARCHY
ROOT Hips
{
	OFFSET 0.00000 0.00000 0.00000
	CHANNELS 6 Xposition Yposition Zposition Yrotation Zrotation Xrotation 
	JOINT Lumbar
	{
		OFFSET 0 0 0
		CHANNELS 3 Zrotation Xrotation Yrotation
		JOINT Neck
		{
			OFFSET 0.00 0.2701 0.00
			CHANNELS 3 Zrotation Xrotation Yrotation
			End Site
			{
				OFFSET 0.00 0.1379 0.00
			}
		}
		JOINT RightShoulder
		{
			OFFSET 0.0119 0.2289 0.1181
			CHANNELS 3 Zrotation Xrotation Yrotation
			JOINT RightElbow
			{
				OFFSET 0.00 -0.1475 0.00
				CHANNELS 2 Zrotation Yrotation
				JOINT RightWrist
				{
					OFFSET 0.00 -0.1605 0.00
					CHANNELS 2 Zrotation Xrotation
					End Site
					{
						OFFSET 0.0040 -0.1068 0.0006
					}
				}
			}
		}
		JOINT LeftShoulder
		{
			OFFSET 0.0119 0.2289 -0.1181
			CHANNELS 3 Zrotation Xrotation Yrotation
			JOINT LeftElbow
			{
				OFFSET 0.00 -0.1475 0.00
				CHANNELS 2 Zrotation Yrotation
				JOINT LeftWrist
				{
					OFFSET 0.00 -0.1605 0.00
					CHANNELS 2 Zrotation Xrotation
					End Site
					{
						OFFSET 0.0040 -0.1068 -0.0006
					}
				}
			}
		}
	}
	JOINT RightHip
	{
		OFFSET 0.0316 -0.0424 0.0458
		CHANNELS 3 Zrotation Xrotation Yrotation
		JOINT RightKnee
		{
			OFFSET 0.00 -0.2438 0.00
			CHANNELS 1 Zrotation
			JOINT RightAnkle
			{
				OFFSET 0.00 -0.2449 0.00
				CHANNELS 3 Zrotation Xrotation Yrotation
				End Site
				{
					OFFSET 0.1237 -0.0542 0.0051
				}
			}
		}
	}
	JOINT LeftHip
	{
		OFFSET 0.0316 -0.0424 -0.0458
		CHANNELS 3 Zrotation Xrotation Yrotation
		JOINT LeftKnee
		{
			OFFSET 0.00 -0.2438 0.00
			CHANNELS 1 Zrotation
			JOINT LeftAnkle
			{
				OFFSET 0.00 -0.2449 0.00
				CHANNELS 3 Zrotation Xrotation Yrotation
				End Site
				{
					OFFSET 0.1237 -0.0542 -0.0051
				}
			}
		}
	}
}
MOTION
Frames: 28
Frame Time: 0.02
-0.00013 6e-05 -3e-05 21.73453 -29.16132 -7.46545 45.97566 3.2289 -2.66326 -12.03857 -3.11322 -0.16482 49.30745 -108.32918 64.17198 8.74655 89.61419 10.77981 -2.00114 29.62342 106.42431 -64.17013 9.19589 -87.86007 7.15894 1.3686 45.81982 -4.98714 -1.1559 -21.90519 -7.33576 -3.90594 -2.71691 49.50745 11.02227 -2.0398 -27.21569 -7.12015 2.86666 2.16846
0.00011 8e-05 -0.00012 21.7555 -29.15502 -7.4725 45.997 3.22529 -2.65073 -12.05238 -3.09962 -0.16542 49.44735 -108.31687 64.17177 8.73341 89.60474 10.81069 -2.0035 29.71568 106.42472 -64.17013 9.18475 -87.85024 7.17742 1.36822 45.76625 -5.01028 -1.31522 -21.90215 -7.3264 -3.89292 -2.70842 49.47009 11.05104 -1.94887 -27.21726 -7.11717 2.86094 2.16218
0.00036 0.00011 -0.00022 21.77644 -29.14874 -7.47952 46.01829 3.2217 -2.63823 -12.06615 -3.08605 -0.16603 49.5869 -108.30455 64.17156 8.72029 89.59533 10.84149 -2.00585 29.80783 106.42508 -64.17014 9.17362 -87.84042 7.19589 1.36782 45.7128 -5.0334 -1.47421 -21.89912 -7.31707 -3.87993 -2.69995 49.43281 11.07967 -1.85834 -27.21883 -7.11419 2.85524 2.15592
0.0006 0.00014 -0.00031 21.79736 -29.14246 -7.48655 46.03956 3.21811 -2.62573 -12.07991 -3.07249 -0.16663 49.72638 -108.29227 64.17134 8.7072 89.58591 10.87228 -2.0082 29.89983 106.42548 -64.17014 9.1625 -87.83061 7.21433 1.36744 45.65939 -5.05648 -1.63307 -21.89609 -7.30774 -3.86694 -2.69149 49.39556 11.10834 -1.76771 -27.2204 -7.11122 2.84953 2.14965
0.00085 0.00016 -0.00041 21.81829 -29.13617 -7.4936 46.06089 3.21451 -2.6132 -12.09369 -3.0589 -0.16724 49.86619 -108.28002 64.17113 8.69408 89.57645 10.90313 -2.01056 29.99187 106.42594 -64.17015 9.15139 -87.82081 7.23275 1.3671 45.60588 -5.07957 -1.79217 -21.89305 -7.29838 -3.85393 -2.68301 49.35823 11.13716 -1.67665 -27.22197 -7.10824 2.8438 2.14335
0.00109 0.00019 -0.0005 21.83924 -29.1299 -7.50055 46.08209 3.21093 -2.60075 -12.10747 -3.0454 -0.16784 50.00518 -108.26755 64.17092 8.68096 89.56714 10.93384 -2.01288 30.08425 106.42609 -64.17015 9.14021 -87.81096 7.25131 1.36655 45.55258 -5.10275 -1.95091 -21.89004 -7.28909 -3.84099 -2.67456 49.32105 11.1654 -1.58725 -27.22353 -7.10526 2.83818 2.13717
0.00134 0.00021 -0.0006 21.86012 -29.1236 -7.5077 46.10354 3.20732 -2.58816 -12.12124 -3.03173 -0.16845 50.14563 -108.25555 64.17071 8.66788 89.55754 10.96479 -2.01528 30.17584 106.42687 -64.17015 9.12919 -87.8012 7.26959 1.36642 45.4989 -5.12572 -2.11026 -21.88698 -7.27969 -3.82791 -2.66605 49.28362 11.19478 -1.49459 -27.2251 -7.10229 2.83234 2.13077
0.00158 0.00024 -0.0007 21.88108 -29.11733 -7.51467 46.12474 3.20374 -2.5757 -12.13501 -3.01821 -0.16906 50.28483 -108.2431 64.1705 8.65475 89.5482 10.99553 -2.0176 30.26815 106.42708 -64.17016 9.11802 -87.79136 7.28811 1.36592 45.44558 -5.14887 -2.26892 -21.88397 -7.27038 -3.81496 -2.65761 49.24642 11.2231 -1.40495 -27.22667 -7.09931 2.8267 2.12457
0.00182 0.00026 -0.00079 21.90213 -29.11109 -7.52142 46.1457 3.2002 -2.56339 -12.14879 -3.00487 -0.16964 50.42217 -108.23015 64.17029 8.6416 89.5392 11.02601 -2.01986 30.36145 106.42655 -64.17016 9.10663 -87.78144 7.30699 1.36491 45.39263 -5.17234 -2.42737 -21.881 -7.26119 -3.80216 -2.64921 49.20948 11.25015 -1.31896 -27.22823 -7.09634 2.8213 2.1186
0.00208 0.00029 -0.00089 21.92262 -29.10464 -7.52945 46.16823 3.19642 -2.5502 -12.16255 -2.99051 -0.17032 50.56922 -108.22022 64.17006 8.62865 89.52832 11.05798 -2.02256 30.4494 106.43015 -64.17017 9.09638 -87.77201 7.32402 1.36667 45.33737 -5.19426 -2.58891 -21.8777 -7.25135 -3.78845 -2.64045 49.17098 11.28458 -1.21183 -27.22983 -7.09335 2.81449 2.11127
0.0023 0.00031 -0.00098 21.9443 -29.09864 -7.53477 46.18731 3.19314 -2.53886 -12.17632 -2.97828 -0.1708 50.69639 -108.20383 64.16988 8.61525 89.52136 11.08679 -2.02428 30.54838 106.4251 -64.17017 9.08385 -87.76155 7.34482 1.36268 45.28708 -5.21923 -2.74271 -21.87516 -7.24288 -3.7767 -2.63251 49.13584 11.30341 -1.14939 -27.23136 -7.0904 2.81068 2.1068
0.00245 0.00033 -0.0011 21.96909 -29.0939 -7.53251 46.19789 3.19131 -2.53271 -12.1904 -2.97221 -0.17076 50.76383 -108.17018 64.16984 8.60078 89.5254 11.10689 -2.02369 30.68034 106.39558 -64.17018 9.06391 -87.74797 7.37705 1.34196 45.2499 -5.25462 -2.88558 -21.87438 -7.2381 -3.77009 -2.62633 49.1094 11.27918 -1.21007 -27.23242 -7.08746 2.81517 2.11027
0.00257 0.00035 -0.00121 21.99506 -29.08962 -7.52756 46.20483 3.18998 -2.5284 -12.20444 -2.96823 -0.17054 50.81237 -108.1299 64.16986 8.58579 89.53332 11.12381 -2.02203 30.82292 106.35751 -64.17019 9.04186 -87.73339 7.41288 1.31562 45.21785 -5.29274 -3.01908 -21.87442 -7.23471 -3.76546 -2.62106 49.08647 11.23934 -1.31547 -27.23344 -7.08458 2.82266 2.11658
0.00269 0.00037 -0.00133 22.0206 -29.08509 -7.52393 46.21278 3.18837 -2.52322 -12.2183 -2.96308 -0.17041 50.87282 -108.09236 64.16986 8.57093 89.53928 11.14219 -2.02066 30.95879 106.32385 -64.1702 9.02153 -87.71946 7.44634 1.2925 45.18375 -5.32821 -3.14973 -21.87432 -7.23075 -3.76008 -2.61571 49.06225 11.20677 -1.40019 -27.23463 -7.08172 2.82873 2.12152
0.00283 0.00038 -0.00145 22.04577 -29.08063 -7.51983 46.2234 3.18693 -2.51822 -12.23295 -2.95883 -0.17022 50.91883 -108.05609 64.16984 8.5566 89.54605 11.16052 -2.0202 31.10241 106.28801 -64.1702 8.99806 -87.70473 7.48286 1.26663 45.14834 -5.36941 -3.30904 -21.87328 -7.22656 -3.75414 -2.609 49.03662 11.17331 -1.48681 -27.23521 -7.07864 2.83506 2.12682
0.00294 0.0004 -0.00156 22.0719 -29.07626 -7.51613 46.22763 3.18529 -2.51321 -12.246 -2.95321 -0.17012 50.99094 -108.01547 64.16988 8.54095 89.55207 11.17819 -2.0175 31.23271 106.25464 -64.17021 8.98053 -87.69139 7.51394 1.24507 45.11703 -5.3996 -3.40807 -21.87433 -7.22315 -3.74974 -2.60526 49.01492 11.13812 -1.57973 -27.23702 -7.07605 2.84156 2.13202
0.003 0.0004 -0.00165 22.10128 -29.071 -7.51389 46.21485 3.18268 -2.50823 -12.25438 -2.94316 -0.17029 51.13525 -107.96585 64.17011 8.52259 89.55506 11.19495 -2.00965 31.32089 106.23069 -64.17022 8.98085 -87.68247 7.52828 1.23766 45.09446 -5.39612 -3.32867 -21.88151 -7.22181 -3.74991 -2.6104 49.00187 11.1011 -1.68199 -27.24257 -7.07474 2.84774 2.13627
0.00304 0.00039 -0.00173 22.13143 -29.066 -7.5122 46.19583 3.17989 -2.50307 -12.26121 -2.93168 -0.17056 51.30713 -107.9119 64.1704 8.50278 89.55718 11.21113 -1.99946 31.39582 106.20947 -64.17022 8.98704 -87.67492 7.53721 1.23465 45.07611 -5.38189 -3.19136 -21.89066 -7.22117 -3.75142 -2.61837 48.99292 11.06298 -1.78865 -27.24933 -7.07393 2.85401 2.14032
0.00309 0.00039 -0.00182 22.16063 -29.06154 -7.51045 46.17985 3.17736 -2.49764 -12.26894 -2.92092 -0.17079 51.46956 -107.85893 64.17065 8.48307 89.55975 11.22747 -1.98984 31.47858 106.18667 -64.17022 8.9899 -87.66655 7.54914 1.22905 45.05669 -5.37431 -3.09022 -21.89854 -7.22003 -3.75176 -2.62445 48.98296 11.02597 -1.8912 -27.25534 -7.0729 2.86027 2.14444
0.00315 0.00039 -0.0019 22.19238 -29.05429 -7.50783 46.16286 3.1741 -2.49373 -12.27586 -2.9099 -0.17099 51.61911 -107.80961 64.17095 8.4656 89.56225 11.24414 -1.98221 31.55399 106.16494 -64.17022 8.99547 -87.65899 7.5588 1.22566 45.0338 -5.35952 -2.9481 -21.90803 -7.21967 -3.75448 -2.63303 48.9695 10.98603 -2.00361 -27.26217 -7.07183 2.86644 2.14873
0.00318 0.00038 -0.00199 22.21904 -29.05294 -7.50717 46.14654 3.17229 -2.48663 -12.28407 -2.89907 -0.17127 51.80132 -107.75211 64.17117 8.44325 89.56459 11.26004 -1.96997 31.64155 106.14183 -64.17023 8.99685 -87.65007 7.57199 1.21886 45.01913 -5.35697 -2.87653 -21.91464 -7.21789 -3.75262 -2.63716 48.9643 10.95192 -2.09671 -27.26758 -7.07097 2.87285 2.1526
0.00317 0.00038 -0.00206 22.23093 -29.06747 -7.51204 46.13379 3.17474 -2.47036 -12.29647 -2.88892 -0.17175 52.07496 -107.67005 64.17116 8.40696 89.56693 11.27391 -1.94488 31.76458 106.11351 -64.17023 8.98494 -87.63712 7.59497 1.20104 45.02558 -5.39247 -3.02409 -21.91266 -7.21165 -3.73696 -2.62759 48.98043 10.93626 -2.12828 -27.26867 -7.07043 2.87941 2.15495
0.00313 0.00038 -0.00213 22.23777 -29.08796 -7.51884 46.1219 3.17861 -2.45096 -12.31022 -2.87902 -0.17229 52.37896 -107.58055 64.17108 8.366 89.56903 11.28704 -1.91538 31.90036 106.08393 -64.17024 8.96867 -87.6227 7.62186 1.17974 45.04021 -5.44033 -3.24278 -21.90773 -7.20403 -3.71679 -2.61358 49.00479 10.92628 -2.1411 -27.2683 -7.07011 2.88627 2.15693
0.00311 0.00039 -0.0022 22.24726 -29.10597 -7.52463 46.10955 3.18174 -2.43327 -12.32318 -2.8691 -0.1728 52.6641 -107.49646 64.17103 8.32769 89.57112 11.3006 -1.88834 32.03133 106.05545 -64.17026 8.95457 -87.60894 7.64789 1.16041 45.05145 -5.48144 -3.4223 -21.90424 -7.1973 -3.69922 -2.60208 49.02571 10.91232 -2.16733 -27.26865 -7.06977 2.89336 2.15935
0.00308 0.00039 -0.00228 22.25525 -29.12313 -7.53102 46.09737 3.18532 -2.41435 -12.33672 -2.85874 -0.17334 52.97217 -107.40353 64.17098 8.28699 89.57386 11.31384 -1.85925 32.1583 106.02475 -64.17024 8.93985 -87.5954 7.67013 1.13965 45.06155 -5.52696 -3.62876 -21.90043 -7.18948 -3.67935 -2.58863 49.04558 10.90392 -2.17425 -27.26881 -7.06912 2.89903 2.16067
0.00305 0.00039 -0.00235 22.26519 -29.14336 -7.5366 46.08502 3.18824 -2.39727 -12.34952 -2.84936 -0.17382 53.23859 -107.32747 64.1709 8.25032 89.57497 11.32744 -1.83349 32.29602 105.99844 -64.17027 8.92534 -87.58089 7.7009 1.12094 45.07578 -5.56635 -3.79669 -21.89655 -7.18359 -3.6632 -2.57814 49.06946 10.88568 -2.21541 -27.26901 -7.06914 2.90758 2.16409
0.003 0.00038 -0.00242 22.28152 -29.17151 -7.53939 46.07267 3.18934 -2.38592 -12.35887 -2.84284 -0.1741 53.38901 -107.29841 64.17071 8.22522 89.57234 11.34308 -1.81718 32.46703 105.98359 -64.17045 8.91233 -87.56527 7.75722 1.10902 45.10045 -5.58606 -3.84173 -21.89314 -7.18337 -3.65826 -2.57698 49.10309 10.83566 -2.36837 -27.26949 -7.07109 2.92533 2.17423
0.00295 0.00038 -0.0025 22.29999 -29.20236 -7.54129 46.06003 3.18964 -2.37654 -12.36769 -2.83726 -0.17432 53.49523 -107.28682 64.17047 8.20476 89.56711 11.35874 -1.80438 32.64718 105.97337 -64.17051 8.89981 -87.54854 7.82132 1.09925 45.1288 -5.59915 -3.84565 -21.88979 -7.18514 -3.65722 -2.57894 49.14031 10.77613 -2.55414 -27.27009 -7.07366 2.94574 2.18633
